HIERARCHY
ROOT mixamorig:Hips
{
	OFFSET 0.000000 35.069874 -0.029489
	CHANNELS 6 Xposition Yposition Zposition Xrotation Yrotation Zrotation
	JOINT mixamorig:Spine
	{
		OFFSET 0.000000 6.876060 0.125662
		CHANNELS 3 Xrotation Yrotation Zrotation
		JOINT mixamorig:Spine1
		{
			OFFSET 0.000000 8.022060 0.146603
			CHANNELS 3 Xrotation Yrotation Zrotation
			JOINT mixamorig:Spine2
			{
				OFFSET 0.000000 9.168079 0.167547
				CHANNELS 3 Xrotation Yrotation Zrotation
				JOINT mixamorig:Neck
				{
					OFFSET 0.000000 10.314075 0.188489
					CHANNELS 3 Xrotation Yrotation Zrotation
					JOINT mixamorig:Head
					{
						OFFSET 0.000000 7.643753 -2.377445
						CHANNELS 3 Xrotation Yrotation Zrotation
						JOINT mixamorig:HeadTop_End
						{
							OFFSET 0.000000 43.788605 -13.619637
							CHANNELS 3 Xrotation Yrotation Zrotation
							End Site
							{
								OFFSET 0.000000 45.857788 0.000000
							}
						}
					}
				}
				JOINT mixamorig:LeftShoulder
				{
					OFFSET 4.392187 8.825001 0.174995
					CHANNELS 3 Xrotation Yrotation Zrotation
					JOINT mixamorig:LeftArm
					{
						OFFSET 8.774866 -2.970879 -0.026997
						CHANNELS 3 Xrotation Yrotation Zrotation
						JOINT mixamorig:LeftForeArm
						{
							OFFSET 8.450586 -0.797432 -0.648343
							CHANNELS 3 Xrotation Yrotation Zrotation
							JOINT mixamorig:LeftHand
							{
								OFFSET 18.458662 0.962311 0.193148
								CHANNELS 3 Xrotation Yrotation Zrotation
								JOINT mixamorig:LeftHandThumb1
								{
									OFFSET 2.379990 -1.333382 2.680594
									CHANNELS 3 Xrotation Yrotation Zrotation
									JOINT mixamorig:LeftHandThumb2
									{
										OFFSET 1.903984 -1.066746 2.144473
										CHANNELS 3 Xrotation Yrotation Zrotation
										JOINT mixamorig:LeftHandThumb3
										{
											OFFSET 0.966393 -1.489639 2.964555
											CHANNELS 3 Xrotation Yrotation Zrotation
											JOINT mixamorig:LeftHandThumb4
											{
												OFFSET 1.205181 -0.823021 1.625701
												CHANNELS 3 Xrotation Yrotation Zrotation
												End Site
												{
													OFFSET 1.050617 -0.818157 1.731923
												}
											}
										}
									}
								}
								JOINT mixamorig:LeftHandIndex1
								{
									OFFSET 7.830624 -0.787468 2.563931
									CHANNELS 3 Xrotation Yrotation Zrotation
									JOINT mixamorig:LeftHandIndex2
									{
										OFFSET 3.312897 -0.052605 1.515312
										CHANNELS 3 Xrotation Yrotation Zrotation
										JOINT mixamorig:LeftHandIndex3
										{
											OFFSET 3.460667 -0.207008 1.581951
											CHANNELS 3 Xrotation Yrotation Zrotation
											JOINT mixamorig:LeftHandIndex4
											{
												OFFSET 2.183182 0.110458 0.999585
												CHANNELS 3 Xrotation Yrotation Zrotation
												End Site
												{
													OFFSET 2.183868 0.110451 0.998074
												}
											}
										}
									}
								}
								JOINT mixamorig:LeftHandMiddle1
								{
									OFFSET 8.556145 -0.261200 0.258753
									CHANNELS 3 Xrotation Yrotation Zrotation
									JOINT mixamorig:LeftHandMiddle2
									{
										OFFSET 3.828903 -0.489014 -0.111505
										CHANNELS 3 Xrotation Yrotation Zrotation
										JOINT mixamorig:LeftHandMiddle3
										{
											OFFSET 3.696209 -0.166595 -0.107596
											CHANNELS 3 Xrotation Yrotation Zrotation
											JOINT mixamorig:LeftHandMiddle4
											{
												OFFSET 2.259281 0.534500 -0.065675
												CHANNELS 3 Xrotation Yrotation Zrotation
												End Site
												{
													OFFSET 2.259735 0.534134 -0.051267
												}
											}
										}
									}
								}
								JOINT mixamorig:LeftHandRing1
								{
									OFFSET 8.509293 -0.556679 -3.044941
									CHANNELS 3 Xrotation Yrotation Zrotation
									JOINT mixamorig:LeftHandRing2
									{
										OFFSET 2.995171 -0.303261 -0.843591
										CHANNELS 3 Xrotation Yrotation Zrotation
										JOINT mixamorig:LeftHandRing3
										{
											OFFSET 2.968273 -0.101997 -0.834287
											CHANNELS 3 Xrotation Yrotation Zrotation
											JOINT mixamorig:LeftHandRing4
											{
												OFFSET 1.521358 -0.461468 -0.418735
												CHANNELS 3 Xrotation Yrotation Zrotation
												End Site
												{
													OFFSET 1.516514 -0.460747 -0.436712
												}
											}
										}
									}
								}
							}
						}
					}
				}
				JOINT mixamorig:RightShoulder
				{
					OFFSET -4.392150 8.825024 0.141388
					CHANNELS 3 Xrotation Yrotation Zrotation
					JOINT mixamorig:RightArm
					{
						OFFSET -8.774886 -2.970947 -0.094209
						CHANNELS 3 Xrotation Yrotation Zrotation
						JOINT mixamorig:RightForeArm
						{
							OFFSET -8.450586 -0.797386 -0.330665
							CHANNELS 3 Xrotation Yrotation Zrotation
							JOINT mixamorig:RightHand
							{
								OFFSET -18.458664 0.962341 0.025780
								CHANNELS 3 Xrotation Yrotation Zrotation
								JOINT mixamorig:RightHandThumb1
								{
									OFFSET -2.390282 -1.240040 2.604684
									CHANNELS 3 Xrotation Yrotation Zrotation
									JOINT mixamorig:RightHandThumb2
									{
										OFFSET -1.912228 -0.992111 2.083740
										CHANNELS 3 Xrotation Yrotation Zrotation
										JOINT mixamorig:RightHandThumb3
										{
											OFFSET -0.876358 -1.555370 2.930126
											CHANNELS 3 Xrotation Yrotation Zrotation
											JOINT mixamorig:RightHandThumb4
											{
												OFFSET -1.227077 -0.755932 1.835223
												CHANNELS 3 Xrotation Yrotation Zrotation
												End Site
												{
													OFFSET -1.124962 -0.750702 1.901603
												}
											}
										}
									}
								}
								JOINT mixamorig:RightHandIndex1
								{
									OFFSET -8.716801 -0.633743 3.098187
									CHANNELS 3 Xrotation Yrotation Zrotation
									JOINT mixamorig:RightHandIndex2
									{
										OFFSET -3.319706 -0.240585 1.198087
										CHANNELS 3 Xrotation Yrotation Zrotation
										JOINT mixamorig:RightHandIndex3
										{
											OFFSET -3.153255 -0.154724 1.138827
											CHANNELS 3 Xrotation Yrotation Zrotation
											JOINT mixamorig:RightHandIndex4
											{
												OFFSET -1.818684 -0.003197 0.655154
												CHANNELS 3 Xrotation Yrotation Zrotation
												End Site
												{
													OFFSET -1.818668 -0.003197 0.655188
												}
											}
										}
									}
								}
								JOINT mixamorig:RightHandMiddle1
								{
									OFFSET -8.158691 -0.528496 0.196552
									CHANNELS 3 Xrotation Yrotation Zrotation
									JOINT mixamorig:RightHandMiddle2
									{
										OFFSET -3.890194 -0.261169 -0.136423
										CHANNELS 3 Xrotation Yrotation Zrotation
										JOINT mixamorig:RightHandMiddle3
										{
											OFFSET -3.903057 -0.179909 -0.137173
											CHANNELS 3 Xrotation Yrotation Zrotation
											JOINT mixamorig:RightHandMiddle4
											{
												OFFSET -2.366261 0.198380 -0.083987
												CHANNELS 3 Xrotation Yrotation Zrotation
												End Site
												{
													OFFSET -2.366409 0.198326 -0.079799
												}
											}
										}
									}
								}
								JOINT mixamorig:RightHandRing1
								{
									OFFSET -7.616104 -0.395126 -2.681268
									CHANNELS 3 Xrotation Yrotation Zrotation
									JOINT mixamorig:RightHandRing2
									{
										OFFSET -3.235790 -0.462120 -1.101476
										CHANNELS 3 Xrotation Yrotation Zrotation
										JOINT mixamorig:RightHandRing3
										{
											OFFSET -3.179264 -0.138618 -1.084847
											CHANNELS 3 Xrotation Yrotation Zrotation
											JOINT mixamorig:RightHandRing4
											{
												OFFSET -1.963291 -0.101624 -0.668250
												CHANNELS 3 Xrotation Yrotation Zrotation
												End Site
												{
													OFFSET -1.963745 -0.101669 -0.666919
												}
											}
										}
									}
								}
							}
						}
					}
				}
			}
		}
	}
	JOINT mixamorig:LeftUpLeg
	{
		OFFSET 10.205382 -3.823519 0.155145
		CHANNELS 3 Xrotation Yrotation Zrotation
		JOINT mixamorig:LeftLeg
		{
			OFFSET 0.283732 -12.998343 0.567794
			CHANNELS 3 Xrotation Yrotation Zrotation
			JOINT mixamorig:LeftFoot
			{
				OFFSET -1.058953 -10.688869 -2.184322
				CHANNELS 3 Xrotation Yrotation Zrotation
				JOINT mixamorig:LeftToeBase
				{
					OFFSET 0.108145 -7.191069 7.560211
					CHANNELS 3 Xrotation Yrotation Zrotation
					JOINT mixamorig:LeftToe_End
					{
						OFFSET 0.070226 0.081726 4.490266
						CHANNELS 3 Xrotation Yrotation Zrotation
						End Site
						{
							OFFSET 0.070226 0.081726 4.490267
						}
					}
				}
			}
		}
	}
	JOINT mixamorig:RightUpLeg
	{
		OFFSET -10.205383 -3.823513 0.005508
		CHANNELS 3 Xrotation Yrotation Zrotation
		JOINT mixamorig:RightLeg
		{
			OFFSET -0.283728 -12.998341 0.610627
			CHANNELS 3 Xrotation Yrotation Zrotation
			JOINT mixamorig:RightFoot
			{
				OFFSET 1.058956 -10.688892 -1.945833
				CHANNELS 3 Xrotation Yrotation Zrotation
				JOINT mixamorig:RightToeBase
				{
					OFFSET -0.108150 -7.191040 7.372945
					CHANNELS 3 Xrotation Yrotation Zrotation
					JOINT mixamorig:RightToe_End
					{
						OFFSET -0.070229 0.081738 4.479398
						CHANNELS 3 Xrotation Yrotation Zrotation
						End Site
						{
							OFFSET -0.070229 0.081738 4.479399
						}
					}
				}
			}
		}
	}
}
MOTION
Frames: 5
Frame Time: 0.016667
0.776716 34.118141 -0.166835 -3.756069 -5.235085 -3.078020 3.313948 1.515394 2.045956 1.146035 0.329158 1.552971 1.123712 0.356193 1.550933 5.622661 -0.077171 0.463899 -7.551143 1.374727 -0.084354 -0.000000 -0.000000 0.000000 1.046123 -17.446014 -12.387081 -0.384702 -21.652446 -65.849191 0.055073 3.524357 -8.365460 -35.160304 -1.607007 -2.395233 9.348653 16.604682 0.735349 -6.091873 45.233150 35.223023 -15.882891 -7.419017 -8.165805 -0.000001 0.000001 -0.000000 4.337928 21.799462 -9.172268 6.529736 1.488857 -13.734075 5.801700 0.459958 -12.543730 -0.000003 -0.000000 -0.000000 -0.447870 -0.049261 -10.052106 0.064927 2.538218 -22.004728 -0.395936 2.891404 -34.167359 -0.000000 -0.000001 -0.000003 -5.301846 -11.911561 -17.475720 -5.549722 4.566381 -23.369986 -0.322627 3.111121 -3.328432 -0.000001 0.000001 0.000001 1.189557 15.344151 14.777331 11.090020 28.773316 54.310444 -0.568696 4.344869 8.389569 -21.701760 -0.913064 0.327707 9.926212 -13.279250 2.011839 -8.793878 -50.953566 -38.796981 -13.581782 4.769303 7.292381 -0.000001 -0.000002 -0.000001 3.537701 -17.027645 6.909232 6.552368 -0.536684 17.569430 3.651430 -0.343031 9.982165 -0.000002 -0.000003 -0.000003 -0.638349 0.634531 14.795231 -0.215854 -2.016904 18.570951 -0.459635 -2.213767 25.789999 -0.000000 -0.000003 -0.000004 -6.860695 14.968831 16.860003 -7.305816 -4.622403 24.568547 -5.032596 -3.364825 16.302249 0.000000 0.000001 -0.000001 -15.601658 13.055967 15.621421 26.690873 -0.003199 3.602570 -7.933829 2.531854 -11.338939 -4.932927 -0.000019 0.000015 0.000001 -0.000001 0.000000 6.492269 -9.873185 -0.381531 7.910435 -8.654452 -3.078255 -9.085080 -3.415882 8.071246 -7.273957 -0.000016 0.000007 0.000001 -0.000000 0.000000 
0.728528 34.056881 -0.150635 -3.695401 -5.098889 -2.750392 3.300256 1.521165 1.853106 1.142600 0.326737 1.493550 1.120641 0.353166 1.491650 5.512580 -0.055568 0.450595 -7.604083 1.429832 -0.080160 0.000000 0.000000 0.000000 1.044426 -17.441395 -12.400862 -0.327579 -21.220008 -65.535993 0.037275 3.335646 -8.364556 -34.233420 -1.706092 -2.387638 9.333121 16.467132 0.802404 -5.733898 44.793214 34.539338 -16.047985 -7.445337 -8.007594 0.000000 0.000001 -0.000001 4.249043 21.775159 -8.818316 6.764093 1.502443 -14.221213 6.249915 0.497086 -13.498046 0.000000 0.000002 0.000002 -0.448782 0.018338 -10.457447 0.096142 2.666610 -22.903038 -0.392860 2.908152 -34.277243 0.000001 -0.000001 -0.000001 -5.532656 -11.712457 -18.487792 -5.644476 4.700424 -23.871641 -0.340170 3.124823 -3.407892 -0.000000 0.000001 -0.000002 1.196958 15.319935 14.733936 10.961542 28.308221 54.223137 -0.564184 4.297536 8.389177 -20.876391 -0.874777 0.320004 9.926200 -13.279184 2.011816 -8.793728 -50.953341 -38.796724 -13.581808 4.769276 7.292325 0.000004 -0.000001 -0.000001 3.767693 -17.060264 7.573845 6.932668 -0.511576 18.582703 4.038539 -0.370048 11.026966 -0.000002 -0.000001 0.000001 -0.649037 0.561272 15.376313 -0.206687 -2.138977 19.615950 -0.447969 -2.356055 26.963623 -0.000001 0.000001 0.000001 -7.004088 14.839482 17.406165 -7.547853 -4.906568 25.561384 -5.337574 -3.634800 17.395389 -0.000002 -0.000001 -0.000001 -15.674212 13.096481 15.358657 26.744835 -0.067201 3.608339 -7.920810 2.465393 -11.367042 -4.912781 -0.000020 0.000010 0.000000 -0.000001 0.000000 5.257074 -9.830532 -0.866045 10.723375 -8.690430 -3.002883 -10.742453 -3.697604 8.214872 -7.364562 -0.000017 0.000012 -0.000000 -0.000000 -0.000000 
0.682281 34.006714 -0.130619 -3.648079 -4.950691 -2.424858 3.291849 1.521458 1.671134 1.139323 0.323328 1.431720 1.117754 0.349071 1.429960 5.443587 -0.027928 0.433869 -7.696953 1.507728 -0.085506 0.000000 0.000000 0.000000 1.044923 -17.434263 -12.405638 -0.202028 -20.746452 -65.192687 0.004495 2.988014 -8.363121 -33.243781 -1.711503 -2.371639 9.318218 16.335033 0.866810 -5.379521 44.297673 33.862124 -16.231181 -7.512495 -7.862880 0.000002 0.000003 -0.000000 4.116398 21.738231 -8.362022 6.971958 1.512830 -14.653167 6.674771 0.525342 -14.401831 0.000000 0.000002 0.000001 -0.448831 0.077021 -10.803595 0.126720 2.784582 -23.731631 -0.390618 2.920188 -34.356265 -0.000000 0.000001 -0.000001 -5.752994 -11.515920 -19.465233 -5.727494 4.819941 -24.316257 -0.351300 3.133548 -3.458333 -0.000001 0.000001 -0.000001 1.202662 15.299269 14.702312 10.857401 27.842665 54.111327 -0.562049 4.274945 8.389010 -20.038429 -0.797319 0.284776 9.926231 -13.279252 2.011823 -8.793933 -50.953785 -38.797076 -13.581757 4.769236 7.292365 0.000002 0.000002 0.000004 4.024137 -17.093727 8.330141 7.331075 -0.478023 19.645354 4.429024 -0.390112 12.079881 0.000002 0.000002 -0.000004 -0.659392 0.486386 15.973220 -0.195080 -2.262613 20.676098 -0.431953 -2.510561 28.240665 -0.000003 0.000002 0.000003 -7.132793 14.714828 17.908326 -7.796478 -5.209086 26.601977 -5.664217 -3.935668 18.585826 -0.000001 -0.000002 0.000002 -15.668584 13.180470 15.080487 26.653217 -0.119158 3.618768 -7.839812 2.347192 -11.389404 -4.918850 -0.000028 0.000011 0.000000 -0.000002 0.000000 4.257529 -9.801160 -1.290941 13.080801 -8.643290 -2.944329 -12.131129 -4.073997 8.283918 -7.430451 0.000005 0.000009 0.000001 0.000000 0.000000 
0.636393 33.959644 -0.108815 -3.609673 -4.797320 -2.095706 3.286358 1.518598 1.491295 1.135780 0.319331 1.368501 1.114624 0.344345 1.366884 5.404328 0.003885 0.414215 -7.816277 1.602060 -0.096107 -0.000000 -0.000000 0.000000 1.046374 -17.425696 -12.406345 -0.107905 -20.249605 -64.855651 -0.025825 2.666409 -8.361936 -32.201221 -1.722519 -2.381416 9.303752 16.206625 0.929413 -5.030606 43.763477 33.193206 -16.426733 -7.607326 -7.727679 -0.000001 -0.000003 0.000001 3.954530 21.692044 -7.836708 7.161920 1.520938 -15.047771 7.083886 0.546205 -15.271475 0.000002 0.000003 0.000002 -0.448295 0.129674 -11.109722 0.157109 2.895405 -24.513139 -0.388952 2.929053 -34.414379 -0.000000 0.000000 0.000002 -5.965444 -11.320153 -20.418840 -5.802543 4.929672 -24.722324 -0.358090 3.138872 -3.489104 0.000001 0.000003 0.000001 1.206416 15.286013 14.681041 10.770901 27.373322 53.980590 -0.561453 4.268539 8.388933 -19.179957 -0.697998 0.223647 9.926237 -13.279342 2.011881 -8.794272 -50.954352 -38.797646 -13.581711 4.769181 7.292415 -0.000001 0.000002 0.000002 4.297812 -17.125641 9.145572 7.740681 -0.435755 20.739637 4.821687 -0.403053 13.137921 -0.000002 0.000002 0.000002 -0.669239 0.410420 16.580233 -0.181054 -2.387133 21.745893 -0.411383 -2.672682 29.584500 -0.000001 0.000001 0.000001 -7.251709 14.593075 18.381945 -8.046910 -5.525315 27.672945 -6.001542 -4.259828 19.838353 0.000001 -0.000004 -0.000001 -15.629206 13.281424 14.793095 26.510852 -0.162160 3.630858 -7.733902 2.206176 -11.412631 -4.938945 -0.000026 0.000013 -0.000000 0.000002 0.000000 3.414043 -9.774257 -1.703957 15.138745 -8.554829 -2.896051 -13.342921 -4.499704 8.397484 -7.479918 -0.000017 0.000008 0.000001 0.000001 -0.000000 
0.589863 33.912876 -0.085123 -3.580811 -4.640779 -1.758041 3.283678 1.512538 1.309543 1.131453 0.314736 1.303835 1.110734 0.338990 1.302359 5.401875 0.040539 0.390911 -7.965510 1.716364 -0.111908 -0.000000 0.000000 -0.000000 1.048119 -17.417001 -12.405106 -0.063890 -19.711642 -64.528280 -0.051696 2.391732 -8.361057 -31.090820 -1.765066 -2.411974 9.289751 16.082363 0.990040 -4.687747 43.185999 32.533431 -16.636355 -7.733271 -7.603568 0.000000 -0.000003 -0.000000 3.759962 21.634722 -7.233549 7.331573 1.527085 -15.400174 7.474981 0.560327 -16.102415 0.000002 -0.000002 -0.000000 -0.447279 0.175488 -11.370598 0.186804 2.998291 -25.241403 -0.387969 2.934304 -34.448927 0.000000 -0.000001 -0.000002 -6.169546 -11.126077 -21.345849 -5.868893 5.028116 -25.084857 -0.359987 3.140346 -3.497700 0.000001 0.000004 -0.000002 1.207343 15.285999 14.672510 10.709845 26.895453 53.825565 -0.563308 4.288301 8.389107 -18.285605 -0.584177 0.125425 9.926252 -13.279419 2.011943 -8.794599 -50.954806 -38.798196 -13.581676 4.769189 7.292513 0.000000 0.000004 0.000001 4.589966 -17.155321 10.024427 8.162160 -0.383960 21.867761 5.216497 -0.408758 14.201339 -0.000002 -0.000001 -0.000001 -0.678542 0.333308 17.197919 -0.164542 -2.512528 22.825965 -0.385611 -2.842880 31.000207 -0.000001 0.000001 0.000002 -7.360284 14.474766 18.824826 -8.299028 -5.856270 28.776540 -6.349617 -4.609526 21.157604 0.000001 -0.000001 0.000002 -15.566203 13.389424 14.497589 26.345050 -0.199623 3.643643 -7.609628 2.050936 -11.447280 -4.969328 -0.000021 0.000012 -0.000000 -0.000002 0.000000 2.644159 -9.750157 -2.096405 17.076895 -8.440697 -2.864920 -14.511575 -4.951274 8.460768 -7.511115 -0.000010 0.000008 0.000001 -0.000001 -0.000000 
